<?xml version="1.0" standalone="no"?>
<!DOCTYPE svg PUBLIC "-//W3C//DTD SVG 20010904//EN"
 "http://www.w3.org/TR/2001/REC-SVG-20010904/DTD/svg10.dtd">
<svg version="1.0" xmlns="http://www.w3.org/2000/svg"
 width="310.000000pt" height="310.000000pt" viewBox="0 0 310.000000 310.000000"
 preserveAspectRatio="xMidYMid meet">
<metadata>
Created by potrace 1.15, written by Peter Selinger 2001-2017
</metadata>
<g transform="translate(0.000000,310.000000) scale(0.100000,-0.100000)"
fill="#ffffff" stroke="none">
<path d="M1320 2950 c-162 -29 -236 -52 -375 -119 -534 -254 -852 -809 -795
-1390 15 -151 38 -252 91 -386 158 -407 512 -725 931 -840 197 -53 374 -66
558 -40 484 69 878 352 1089 782 170 347 186 752 45 1117 -72 187 -170 334
-323 486 -271 269 -622 412 -1001 409 -71 -1 -166 -9 -220 -19z m425 -209 c61
-11 139 -29 175 -41 88 -28 287 -127 294 -145 3 -9 -36 -129 -88 -268 -51
-138 -99 -269 -105 -289 -7 -21 -16 -38 -20 -38 -4 0 -24 44 -45 98 -102 262
-126 324 -156 405 l-33 87 -217 0 -217 0 -33 -87 c-30 -81 -54 -143 -156 -405
-21 -54 -41 -98 -45 -98 -4 0 -13 17 -20 38 -6 20 -54 152 -106 292 l-94 255
28 23 c39 31 195 106 276 132 183 59 378 73 562 41z m-1068 -398 c3 -10 44
-115 90 -233 47 -118 100 -255 119 -305 20 -49 46 -115 59 -147 l24 -56 -140
-364 c-77 -199 -147 -382 -156 -406 -8 -23 -19 -42 -23 -42 -5 0 -31 30 -60
68 -59 78 -151 259 -179 352 -42 144 -46 173 -46 365 1 165 4 201 24 275 49
182 125 333 240 477 30 37 39 40 48 16z m1811 -35 c145 -191 227 -393 252
-625 31 -284 -53 -591 -226 -820 -30 -40 -58 -73 -63 -73 -5 0 -16 19 -24 43
-9 23 -79 206 -156 405 l-140 364 24 56 c13 32 39 98 59 147 19 50 72 187 119
305 46 118 87 223 90 233 10 27 22 21 65 -35z m-975 -103 c13 -38 30 -70 37
-70 7 0 21 23 30 50 36 102 41 111 50 95 10 -18 50 -125 145 -390 37 -102 74
-205 83 -229 12 -34 13 -51 5 -80 -15 -50 -57 -163 -66 -178 -6 -10 -67 -13
-247 -13 -180 0 -241 3 -247 13 -9 15 -51 128 -66 178 -8 29 -7 46 5 80 9 24
46 127 83 229 136 379 146 403 155 393 4 -4 19 -39 33 -78z m-321 -1180 c32
-82 81 -207 108 -278 27 -70 54 -136 60 -147 10 -19 21 -20 190 -20 169 0 180
1 190 20 6 11 33 77 60 147 176 455 163 428 197 431 28 3 32 -1 51 -50 35 -91
192 -523 192 -530 0 -6 -145 -98 -155 -98 -2 0 -28 -11 -57 -24 -107 -49 -196
-72 -351 -92 -109 -14 -132 -14 -254 0 -89 11 -168 28 -239 51 -101 33 -250
104 -303 144 l-24 18 87 239 c135 371 124 346 159 342 30 -3 33 -8 89 -153z
m518 143 c0 -20 -103 -288 -111 -288 -4 0 -15 23 -24 50 -9 28 -20 50 -25 50
-5 0 -16 -22 -25 -50 -9 -27 -20 -50 -24 -50 -8 0 -111 268 -111 288 0 9 46
12 160 12 114 0 160 -3 160 -12z"/>
</g>
</svg>
